<?xml version="1.0" encoding="utf-8"?>
<!-- Generator: Adobe Illustrator 15.0.2, SVG Export Plug-In . SVG Version: 6.00 Build 0)  -->
<!DOCTYPE svg PUBLIC "-//W3C//DTD SVG 1.1//EN" "http://www.w3.org/Graphics/SVG/1.1/DTD/svg11.dtd">
<svg version="1.1" id="Layer_1" xmlns="http://www.w3.org/2000/svg" xmlns:xlink="http://www.w3.org/1999/xlink" x="0px" y="0px"
	 width="399.895px" height="421.521px" viewBox="0 0 399.895 421.521" enable-background="new 0 0 399.895 421.521"
	 xml:space="preserve">
<g>
	<path fill-rule="evenodd" clip-rule="evenodd" d="M311.944,0.986c19.477-1.146,24.061-1.474,37.318,0
		c25.423,3.056,45.174,11.785,50.085,35.354c0.655,3.765,0.803,8.114,0,13.749c-14.485,84.949-102.899,119.7-188.557,145.346
		c22.632,62.482,74.113,96.11,132.579,122.758c-1.973,8.83-8.988,12.617-15.713,16.695
		c-66.311-21.749-112.279-63.837-145.346-118.83c-24.313,60.144-48.532,120.384-100.171,153.202
		c52.767-62.502,89.682-139.306,106.063-239.624c3.41-20.88,7.162-35.451,28.48-40.265c-1.2,31.863-16.506,54.856-15.713,85.439
		c60.496-9.416,118.752-25.979,155.166-66.78c12.109-13.568,27.677-40.063,19.642-60.888c-7.687-19.922-38.568-26.671-71.69-26.516
		C243.1,20.914,199.565,45.985,157.759,70.713c-22.841,13.511-41.127,24.642-57.942,40.265
		c-18.911,17.57-47.692,52.115-31.426,87.404c11.369,24.664,43.641,29.352,81.512,27.498c-4.542,19.281-26.287,18.662-40.265,24.552
		c-14.3,6.025-27.067,15.174-39.283,25.534c-22.259,18.877-45.537,44.73-49.104,79.547c-3.31,32.312,10.746,47.642,45.175,45.175
		c49.237-3.527,87.486-36.31,118.83-55.978c-29.377,38.058-70.028,64.843-126.687,75.619c-8.838,0.946-9.82,2.129-24.551,0
		c-17.321-2.647-27.007-12.11-32.408-27.498c-2.455-11.619-1.817-15.911,0-23.569c10.301-47.773,44.98-83.063,77.583-110.974
		c3.637-3.113,10.286-6.822,9.821-12.767c-30.675-1.245-52.652-28.159-44.193-66.78c11.096-50.656,57.619-87.766,104.099-116.866
		C199.029,30.502,255.019,5.526,311.944,0.986z"/>
</g>
</svg>
